<?xml version="1.0"?>
<svg xmlns="http://www.w3.org/2000/svg" data-name="Layer 1" id="Layer_1" viewBox="0 0 128 128"><title/><path d="M124.81018,105.27924a5.46224,5.46224,0,0,0-1.27594-5.787l-1.02509-1.024a5.551,5.551,0,0,0-3.89545-1.63092,5.2602,5.2602,0,0,0-1.89453.34863A5.46011,5.46011,0,0,0,111.72168,94H110.2793a5.46219,5.46219,0,0,0-4.9986,3.18518,5.26372,5.26372,0,0,0-1.89264-.348,5.56145,5.56145,0,0,0-3.89758,1.63129l-1.02173,1.02222a5.51706,5.51706,0,0,0-1.62158,3.57983,5.28282,5.28282,0,0,0,.34186,2.20886A5.46048,5.46048,0,0,0,94,110.27881v1.44238a5.46076,5.46076,0,0,0,3.18939,5,5.27842,5.27842,0,0,0-.34222,2.209,5.52248,5.52248,0,0,0,1.62756,3.58557l1.0127,1.01416a5.572,5.572,0,0,0,3.90076,1.63269,5.26692,5.26692,0,0,0,1.89233-.34766A5.46217,5.46217,0,0,0,110.2793,128h1.44238a5.46044,5.46044,0,0,0,4.9978-3.18591,5.25748,5.25748,0,0,0,1.89362.34857,5.55939,5.55939,0,0,0,3.89648-1.6297l1.0224-1.0224a5.46464,5.46464,0,0,0,1.278-5.78925,5.46127,5.46127,0,0,0,3.19-5.00012v-1.44238A5.46034,5.46034,0,0,0,124.81018,105.27924ZM124,111.72119a1.37267,1.37267,0,0,1-1.28473,1.44629h-1.83978a10.10053,10.10053,0,0,1-1.35937,3.2832l1.30029,1.3017a1.37275,1.37275,0,0,1-.11279,1.92975l-1.02155,1.02148a1.5253,1.5253,0,0,1-1.069.459,1.20442,1.20442,0,0,1-.86072-.34479l-1.30219-1.30469a10.0313,10.0313,0,0,1-3.2832,1.36279v1.84082A1.37222,1.37222,0,0,1,111.72168,124H110.2793a1.37267,1.37267,0,0,1-1.44678-1.2832V120.876a10.04756,10.04756,0,0,1-3.28223-1.36279l-1.30127,1.30469a1.205,1.205,0,0,1-.86084.34479,1.53035,1.53035,0,0,1-1.07031-.459l-1.02-1.02148a1.37012,1.37012,0,0,1-.11481-1.92975l1.30231-1.3017a10.09148,10.09148,0,0,1-1.3609-3.2832H99.28418A1.372,1.372,0,0,1,98,111.72119v-1.44238a1.37119,1.37119,0,0,1,1.28418-1.4458h1.84033a10.0769,10.0769,0,0,1,1.3609-3.28223l-1.30231-1.30231a1.3705,1.3705,0,0,1,.11481-1.93005l1.02-1.02051a1.527,1.527,0,0,1,1.07-.46069,1.20159,1.20159,0,0,1,.86114.34686l1.30127,1.30133a10.06223,10.06223,0,0,1,3.28223-1.35944v-1.8418A1.37111,1.37111,0,0,1,110.2793,98h1.44238a1.37067,1.37067,0,0,1,1.44531,1.28418v1.8418a10.046,10.046,0,0,1,3.2832,1.35944l1.30219-1.30133a1.20051,1.20051,0,0,1,.861-.34686,1.52254,1.52254,0,0,1,1.06866.46069l1.02155,1.02051a1.37312,1.37312,0,0,1,.11279,1.93005l-1.30029,1.30231a10.08593,10.08593,0,0,1,1.35938,3.28223h1.83978A1.3719,1.3719,0,0,1,124,110.27881Z"/><path d="M111,104a7,7,0,1,0,7,7A6.99972,6.99972,0,0,0,111,104Zm0,10a3,3,0,1,1,3-3A3.00344,3.00344,0,0,1,111,114Z"/><path d="M124.81018,11.27917a5.32265,5.32265,0,0,0,.33411-2.25677,5.48014,5.48014,0,0,0-.31995-1.51025,5.54617,5.54617,0,0,0-1.2901-2.02l-1.02515-1.02411a5.522,5.522,0,0,0-1.12756-.84521,5.48833,5.48833,0,0,0-2.76782-.78564h-.00012a5.25979,5.25979,0,0,0-1.89441.34863A5.46011,5.46011,0,0,0,111.72168,0H110.2793a5.46219,5.46219,0,0,0-4.9986,3.18518,5.195,5.195,0,0,0-.92175-.25964,5.34755,5.34755,0,0,0-.97089-.08832H103.388a5.56141,5.56141,0,0,0-3.89746,1.63116L98.46881,5.4906a5.566,5.566,0,0,0-.52258.62439A5.546,5.546,0,0,0,97.32629,7.136a5.46723,5.46723,0,0,0-.47913,1.93451,5.28282,5.28282,0,0,0,.34186,2.20886A5.46048,5.46048,0,0,0,94,16.27881v1.44238a5.46076,5.46076,0,0,0,3.18939,5,5.27842,5.27842,0,0,0-.34222,2.209,5.43585,5.43585,0,0,0,.15143.99207,5.55648,5.55648,0,0,0,1.47614,2.59351l1.01117,1.01263.00146.00146.00006.00006a5.572,5.572,0,0,0,3.90076,1.63269h.00006a5.26527,5.26527,0,0,0,1.89227-.34766,5.21812,5.21812,0,0,0,.36389.67438,5.3674,5.3674,0,0,0,.99695,1.15613A5.5208,5.5208,0,0,0,110.2793,34h1.44238a5.53207,5.53207,0,0,0,3.02271-.89069,5.44067,5.44067,0,0,0,1.15491-1.00739,5.27117,5.27117,0,0,0,.82019-1.28784,5.25748,5.25748,0,0,0,1.89362.34857,5.53262,5.53262,0,0,0,3.59241-1.38043c.0993-.086.21057-.15588.304-.24915l.00012-.00012,1.0224-1.0224a5.60927,5.60927,0,0,0,.45245-.52466,5.4393,5.4393,0,0,0,1.15936-3.00751,5.40439,5.40439,0,0,0-.0025-.76624,5.27567,5.27567,0,0,0-.3313-1.49084A5.46127,5.46127,0,0,0,128,17.72119V16.27881a5.51819,5.51819,0,0,0-1.35657-3.63934A5.3185,5.3185,0,0,0,124.81018,11.27917ZM124,17.72119a1.37267,1.37267,0,0,1-1.28473,1.44629h-1.83978a10.10053,10.10053,0,0,1-1.35937,3.2832l1.30029,1.3017a1.21526,1.21526,0,0,1,.34277.94183,1.53607,1.53607,0,0,1-.45557.98785l-1.02155,1.02155a1.56254,1.56254,0,0,1-.78687.43005,1.404,1.404,0,0,1-.2821.029,1.20442,1.20442,0,0,1-.86072-.34479l-1.30219-1.30469A10.0313,10.0313,0,0,1,113.167,26.876V28.7168a1.15529,1.15529,0,0,1-.11359.499A1.45941,1.45941,0,0,1,111.72168,30H110.2793a1.46048,1.46048,0,0,1-1.33319-.78424,1.15441,1.15441,0,0,1-.11359-.499V26.876a10.04756,10.04756,0,0,1-3.28223-1.36279L104.249,26.81787a1.205,1.205,0,0,1-.86084.34479,1.4924,1.4924,0,0,1-.82684-.259,1.64155,1.64155,0,0,1-.24347-.2l-1.02-1.02155a1.53212,1.53212,0,0,1-.45776-.98785,1.215,1.215,0,0,1,.343-.94183l1.30231-1.3017a10.09148,10.09148,0,0,1-1.3609-3.2832H99.28418A1.372,1.372,0,0,1,98,17.72119V16.27881a1.37119,1.37119,0,0,1,1.28418-1.4458h1.84033a10.0769,10.0769,0,0,1,1.3609-3.28223l-1.30231-1.30231a1.16152,1.16152,0,0,1-.27325-.4342,1.28969,1.28969,0,0,1-.0697-.50775,1.53243,1.53243,0,0,1,.45776-.9881l1.02-1.02051a1.527,1.527,0,0,1,1.07-.46069,1.20159,1.20159,0,0,1,.86114.34686l1.30127,1.30133A10.06224,10.06224,0,0,1,108.83252,7.126V5.28418A1.37111,1.37111,0,0,1,110.2793,4h1.44238A1.37067,1.37067,0,0,1,113.167,5.28418V7.126a10.046,10.046,0,0,1,3.2832,1.35944l1.30219-1.30133a1.201,1.201,0,0,1,.86108-.34686,1.44413,1.44413,0,0,1,.56049.116,1.59583,1.59583,0,0,1,.50812.34473l1.02155,1.02051a1.53638,1.53638,0,0,1,.45557.9881,1.29189,1.29189,0,0,1-.06964.50775,1.1612,1.1612,0,0,1-.27313.4342l-1.30029,1.30231a10.08593,10.08593,0,0,1,1.35938,3.28223h1.83978A1.3719,1.3719,0,0,1,124,16.27881Z"/><path d="M17.72168,128a5.46044,5.46044,0,0,0,4.9978-3.18591,5.25748,5.25748,0,0,0,1.89362.34857,5.55939,5.55939,0,0,0,3.89648-1.6297l1.0224-1.0224a5.46464,5.46464,0,0,0,1.278-5.78925A5.46127,5.46127,0,0,0,34,111.72119v-1.44238a5.46034,5.46034,0,0,0-3.18982-4.99957,5.46224,5.46224,0,0,0-1.27594-5.787l-1.02509-1.024a5.551,5.551,0,0,0-3.89545-1.63092,5.2602,5.2602,0,0,0-1.89453.34863A5.46011,5.46011,0,0,0,17.72168,94H16.2793a5.46219,5.46219,0,0,0-4.9986,3.18518,5.26372,5.26372,0,0,0-1.89264-.348,5.56145,5.56145,0,0,0-3.89758,1.63129L4.46875,99.49072a5.51706,5.51706,0,0,0-1.62158,3.57983,5.28282,5.28282,0,0,0,.34186,2.20886A5.46048,5.46048,0,0,0,0,110.27881v1.44238a5.46076,5.46076,0,0,0,3.18939,5,5.27842,5.27842,0,0,0-.34222,2.209,5.52248,5.52248,0,0,0,1.62756,3.58557L5.48743,123.53a5.572,5.572,0,0,0,3.90076,1.63269,5.26692,5.26692,0,0,0,1.89233-.34766A5.46217,5.46217,0,0,0,16.2793,128Zm-2.88916-5.2832V120.876a10.04756,10.04756,0,0,1-3.28223-1.36279L10.249,120.81787a1.205,1.205,0,0,1-.86084.34479,1.53035,1.53035,0,0,1-1.07031-.459l-1.02-1.02148a1.37012,1.37012,0,0,1-.11481-1.92975l1.30231-1.3017a10.09148,10.09148,0,0,1-1.3609-3.2832H5.28418A1.372,1.372,0,0,1,4,111.72119v-1.44238a1.37119,1.37119,0,0,1,1.28418-1.4458H7.12451a10.0769,10.0769,0,0,1,1.3609-3.28223l-1.30231-1.30231a1.3705,1.3705,0,0,1,.11481-1.93005l1.02-1.02051a1.527,1.527,0,0,1,1.07-.46069,1.20159,1.20159,0,0,1,.86115.34686l1.30127,1.30133a10.06224,10.06224,0,0,1,3.28223-1.35944v-1.8418A1.37111,1.37111,0,0,1,16.2793,98h1.44238A1.37067,1.37067,0,0,1,19.167,99.28418v1.8418a10.046,10.046,0,0,1,3.2832,1.35944l1.30219-1.30133a1.20051,1.20051,0,0,1,.861-.34686,1.52254,1.52254,0,0,1,1.06866.46069l1.02155,1.02051a1.37312,1.37312,0,0,1,.11279,1.93005l-1.30029,1.30231a10.08593,10.08593,0,0,1,1.35938,3.28223h1.83978A1.3719,1.3719,0,0,1,30,110.27881v1.44238a1.37267,1.37267,0,0,1-1.28473,1.44629H26.87549a10.10053,10.10053,0,0,1-1.35937,3.2832l1.30029,1.3017a1.37275,1.37275,0,0,1-.11279,1.92975l-1.02155,1.02148a1.5253,1.5253,0,0,1-1.069.459,1.20442,1.20442,0,0,1-.86072-.34479l-1.30219-1.30469A10.0313,10.0313,0,0,1,19.167,120.876v1.84082A1.37222,1.37222,0,0,1,17.72168,124H16.2793A1.37267,1.37267,0,0,1,14.83252,122.7168Z"/><path d="M24,111a7,7,0,1,0-7,7A7.001,7.001,0,0,0,24,111Zm-10,0a3,3,0,1,1,3,3A3.00344,3.00344,0,0,1,14,111Z"/><path d="M3.18939,22.72119a5.27842,5.27842,0,0,0-.34222,2.209,5.52219,5.52219,0,0,0,1.62756,3.58551l1.01263,1.01416a5.57232,5.57232,0,0,0,3.90088,1.63275,5.26527,5.26527,0,0,0,1.89227-.34766A5.46224,5.46224,0,0,0,16.2793,34h1.44238a5.46054,5.46054,0,0,0,4.9978-3.18591,5.25855,5.25855,0,0,0,1.89362.34857,5.55961,5.55961,0,0,0,3.89636-1.62958L29.532,28.51044a5.46437,5.46437,0,0,0,1.278-5.78912A5.46127,5.46127,0,0,0,34,17.72119V16.27881a5.46053,5.46053,0,0,0-3.18982-4.99963,5.46214,5.46214,0,0,0-1.27594-5.787L28.50909,4.46808a5.55121,5.55121,0,0,0-3.89551-1.63086,5.25979,5.25979,0,0,0-1.89441.34863A5.46011,5.46011,0,0,0,17.72168,0H16.2793a5.46219,5.46219,0,0,0-4.9986,3.18518,5.2638,5.2638,0,0,0-1.8927-.348A5.56141,5.56141,0,0,0,5.49054,4.46838L4.46881,5.4906a5.5174,5.5174,0,0,0-1.62164,3.58A5.283,5.283,0,0,0,3.189,11.27942,5.46041,5.46041,0,0,0,0,16.27881v1.44238A5.46076,5.46076,0,0,0,3.18939,22.72119ZM4,16.27881A1.37119,1.37119,0,0,1,5.28418,14.833H7.12451a10.0769,10.0769,0,0,1,1.3609-3.28223L7.18311,10.24847a1.37057,1.37057,0,0,1,.11481-1.93011l1.02-1.02045a1.52721,1.52721,0,0,1,1.07-.46069,1.20159,1.20159,0,0,1,.86115.34686l1.30127,1.30133A10.06224,10.06224,0,0,1,14.83252,7.126V5.28418A1.37111,1.37111,0,0,1,16.2793,4h1.44238A1.37067,1.37067,0,0,1,19.167,5.28418V7.126a10.046,10.046,0,0,1,3.2832,1.35944l1.30219-1.30133a1.201,1.201,0,0,1,.86108-.34686,1.52241,1.52241,0,0,1,1.0686.46069l1.02155,1.02045a1.3732,1.3732,0,0,1,.11279,1.93011l-1.30029,1.30231A10.08593,10.08593,0,0,1,26.87549,14.833h1.83978A1.3719,1.3719,0,0,1,30,16.27881v1.44238a1.37271,1.37271,0,0,1-1.28473,1.44629H26.87549a10.10053,10.10053,0,0,1-1.35937,3.2832l1.30029,1.3017a1.37268,1.37268,0,0,1-.11279,1.92969l-1.02155,1.02155a1.52541,1.52541,0,0,1-1.069.459,1.20442,1.20442,0,0,1-.86072-.34479L22.4502,25.51318A10.03262,10.03262,0,0,1,19.167,26.876V28.7168A1.37226,1.37226,0,0,1,17.72168,30H16.2793a1.37271,1.37271,0,0,1-1.44678-1.2832V26.876a10.04888,10.04888,0,0,1-3.28223-1.36279L10.249,26.81787a1.20487,1.20487,0,0,1-.86078.34479,1.53075,1.53075,0,0,1-1.07037-.459l-1.02-1.02155a1.37005,1.37005,0,0,1-.11481-1.92969l1.30231-1.3017a10.09148,10.09148,0,0,1-1.3609-3.2832H5.28418A1.372,1.372,0,0,1,4,17.72119Z"/><path d="M17,24a7,7,0,1,0-7-7A7.00136,7.00136,0,0,0,17,24Zm0-10a3,3,0,1,1-3,3A3.0034,3.0034,0,0,1,17,14Z"/><path d="M111,10a7,7,0,1,0,7,7A6.99972,6.99972,0,0,0,111,10Zm0,10a3,3,0,1,1,3-3A3.00344,3.00344,0,0,1,111,20Z"/><path d="M125.59863,65.48828a4.17064,4.17064,0,0,0-3.6333.14258V46a2,2,0,1,0-4,0V70.05371a1.99978,1.99978,0,0,0,3.3667,1.46l2.50342-2.34277a.15323.15323,0,0,1,.165-.01367l.02637,2.97363-7.17578,7.52539a1.28649,1.28649,0,0,1-1.70166.001L108,72.2207V69.15723a.15318.15318,0,0,1,.165.01367l2.50293,2.34277a1.99978,1.99978,0,0,0,3.3667-1.46V46a2,2,0,0,0-4,0V65.63086a4.1776,4.1776,0,0,0-3.6333-.14258A3.88582,3.88582,0,0,0,104,69.08008V72.2207a3.85223,3.85223,0,0,0,1.07861,2.66992l7.17676,7.52734a5.22219,5.22219,0,0,0,7.48975-.001l7.1748-7.52441A3.85531,3.85531,0,0,0,128,72.2207V69.08008A3.88582,3.88582,0,0,0,125.59863,65.48828Z"/><path d="M2.40137,62.51172a4.17753,4.17753,0,0,0,3.6333-.14258V82a2,2,0,0,0,4,0V57.94629a1.99978,1.99978,0,0,0-3.3667-1.46L4.16455,58.8291a.1552.1552,0,0,1-.165.01367l-.02637-2.97363,7.17578-7.52539a1.28649,1.28649,0,0,1,1.70166-.001L20,55.7793v3.06348a.15526.15526,0,0,1-.165-.01367L17.332,56.48633a1.99978,1.99978,0,0,0-3.3667,1.46V82a2,2,0,0,0,4,0V62.36914a4.184,4.184,0,0,0,3.6333.14258A3.88582,3.88582,0,0,0,24,58.91992V55.7793a3.85223,3.85223,0,0,0-1.07861-2.66992L15.74463,45.582a5.22219,5.22219,0,0,0-7.48975.001l-7.1748,7.52441A3.8553,3.8553,0,0,0,0,55.7793v3.14063A3.88582,3.88582,0,0,0,2.40137,62.51172Z"/><path d="M61.51123,106.40137A3.88582,3.88582,0,0,0,57.91943,104H54.7793a3.863,3.863,0,0,0-2.67041,1.07813l-7.52539,7.17578a5.22224,5.22224,0,0,0-.00049,7.49121l7.52734,7.17773A3.86028,3.86028,0,0,0,54.7793,128h3.14014a3.88582,3.88582,0,0,0,3.5918-2.40137,4.17474,4.17474,0,0,0-.14111-3.63281H81a2,2,0,0,0,0-4H56.94629a2.00005,2.00005,0,0,0-1.46,3.36719l2.34326,2.501a.15535.15535,0,0,1,.0127.167l-2.97266.02637-7.52637-7.17773a1.22365,1.22365,0,0,1,.00049-1.7002L54.7793,108h3.06348a.154.154,0,0,1-.01318.165l-2.34326,2.502a2.00005,2.00005,0,0,0,1.46,3.36719H81a2,2,0,0,0,0-4H61.37012A4.17474,4.17474,0,0,0,61.51123,106.40137Z"/><path d="M70.51367,17.333a2.00005,2.00005,0,0,0-1.46-3.36719H45a2,2,0,1,0,0,4H64.62988a4.17474,4.17474,0,0,0-.14111,3.63281A3.88582,3.88582,0,0,0,68.08057,24H71.2207a3.863,3.863,0,0,0,2.67041-1.07812l7.52539-7.17578A5.22224,5.22224,0,0,0,81.417,8.25488L73.88965,1.07715A3.86028,3.86028,0,0,0,71.2207,0H68.08057a3.88582,3.88582,0,0,0-3.5918,2.40137,4.17474,4.17474,0,0,0,.14111,3.63281H45a2,2,0,0,0,0,4H69.05371a2.00005,2.00005,0,0,0,1.46-3.36719L68.17041,4.166a.15535.15535,0,0,1-.0127-.167l2.97266-.02637,7.52637,7.17773a1.22365,1.22365,0,0,1-.00049,1.7002L71.2207,20H68.15723a.154.154,0,0,1,.01318-.165Z"/><path d="M95,77V39a6.00656,6.00656,0,0,0-6-6H39a6.00656,6.00656,0,0,0-6,6V77a6.00656,6.00656,0,0,0,6,6H55.3335v7H48a2,2,0,0,0,0,4H80a2,2,0,0,0,0-4H72.6665V83H89A6.00656,6.00656,0,0,0,95,77ZM68.6665,90h-9.333V83.333h9.333ZM39,79a2.00229,2.00229,0,0,1-2-2V39a2.00229,2.00229,0,0,1,2-2H89a2.00229,2.00229,0,0,1,2,2V77a2.00229,2.00229,0,0,1-2,2Z"/><path d="M77.81018,52.27917a5.46214,5.46214,0,0,0-1.27594-5.787l-1.02515-1.02411a5.55121,5.55121,0,0,0-3.89551-1.63086,5.25979,5.25979,0,0,0-1.89441.34863A5.46011,5.46011,0,0,0,64.72168,41H63.2793a5.46219,5.46219,0,0,0-4.9986,3.18518,5.2638,5.2638,0,0,0-1.8927-.348,5.561,5.561,0,0,0-3.89752,1.63129L51.46881,46.4906a5.5174,5.5174,0,0,0-1.62164,3.58,5.283,5.283,0,0,0,.34186,2.20886A5.46041,5.46041,0,0,0,47,57.27881v1.44238a5.46076,5.46076,0,0,0,3.18939,5,5.27842,5.27842,0,0,0-.34222,2.209,5.52248,5.52248,0,0,0,1.62756,3.58557l1.01263,1.0141a5.572,5.572,0,0,0,3.90088,1.63275,5.26552,5.26552,0,0,0,1.89227-.34766A5.46213,5.46213,0,0,0,63.2793,75h1.44238a5.46044,5.46044,0,0,0,4.9978-3.18591,5.25724,5.25724,0,0,0,1.89362.34857,5.55939,5.55939,0,0,0,3.89648-1.6297L76.532,69.5105a5.46449,5.46449,0,0,0,1.278-5.78918A5.46127,5.46127,0,0,0,81,58.72119V57.27881A5.46053,5.46053,0,0,0,77.81018,52.27917ZM77,58.72119a1.37271,1.37271,0,0,1-1.28473,1.44629H73.87549a10.10053,10.10053,0,0,1-1.35937,3.2832l1.30029,1.3017a1.37268,1.37268,0,0,1-.11279,1.92969l-1.02155,1.02155a1.52541,1.52541,0,0,1-1.069.459,1.20442,1.20442,0,0,1-.86072-.34479L69.4502,66.51318A10.03262,10.03262,0,0,1,66.167,67.876V69.7168A1.37222,1.37222,0,0,1,64.72168,71H63.2793a1.37267,1.37267,0,0,1-1.44678-1.2832V67.876a10.04833,10.04833,0,0,1-3.28223-1.36279L57.249,67.81787a1.20476,1.20476,0,0,1-.86084.34479,1.53035,1.53035,0,0,1-1.07031-.459l-1.02-1.02155a1.37005,1.37005,0,0,1-.11481-1.92969l1.30231-1.3017a10.09148,10.09148,0,0,1-1.3609-3.2832H52.28418A1.372,1.372,0,0,1,51,58.72119V57.27881a1.37119,1.37119,0,0,1,1.28418-1.4458h1.84033a10.0769,10.0769,0,0,1,1.3609-3.28223l-1.30231-1.30231a1.37057,1.37057,0,0,1,.11481-1.93011l1.02-1.02045a1.52721,1.52721,0,0,1,1.07-.46069,1.20159,1.20159,0,0,1,.86115.34686l1.30127,1.30133A10.06169,10.06169,0,0,1,61.83252,48.126v-1.8418A1.37111,1.37111,0,0,1,63.2793,45h1.44238A1.37067,1.37067,0,0,1,66.167,46.28418V48.126a10.046,10.046,0,0,1,3.2832,1.35944l1.30219-1.30133a1.201,1.201,0,0,1,.86108-.34686,1.52241,1.52241,0,0,1,1.0686.46069l1.02155,1.02045a1.3732,1.3732,0,0,1,.11279,1.93011l-1.30029,1.30231A10.08593,10.08593,0,0,1,73.87549,55.833h1.83978A1.3719,1.3719,0,0,1,77,57.27881Z"/><path d="M64,51a7,7,0,1,0,7,7A6.99972,6.99972,0,0,0,64,51Zm0,10a3,3,0,1,1,3-3A3.00344,3.00344,0,0,1,64,61Z"/></svg>
