<?xml version="1.0" encoding="UTF-8"?>
<svg xmlns="http://www.w3.org/2000/svg" xmlns:xlink="http://www.w3.org/1999/xlink" version="1.1" id="Capa_1" x="0px" y="0px" viewBox="0 0 511.221 511.221" style="enable-background:new 0 0 511.221 511.221;" xml:space="preserve" width="512" height="512">
<g>
	<g>
		
			<line style="fill:none;stroke:#000000;stroke-width:15;stroke-linecap:round;stroke-linejoin:round;stroke-miterlimit:10;" x1="475.72" y1="421.788" x2="475.72" y2="292.64"/>
		
			<line style="fill:none;stroke:#000000;stroke-width:15;stroke-linecap:round;stroke-linejoin:round;stroke-miterlimit:10;" x1="36.501" y1="239.342" x2="36.501" y2="421.788"/>
		<path style="fill:none;stroke:#000000;stroke-width:15;stroke-linecap:round;stroke-linejoin:round;stroke-miterlimit:10;" d="&#10;&#9;&#9;&#9;M169.207,134.004H61.577c-13.849,0-25.077,11.227-25.077,25.077v18.51"/>
		<path style="fill:none;stroke:#000000;stroke-width:15;stroke-linecap:round;stroke-linejoin:round;stroke-miterlimit:10;" d="&#10;&#9;&#9;&#9;M211.946,223.449c-7.963,0-14.441-6.478-14.441-14.441v-62.833c0-7.963,6.478-14.441,14.441-14.441h88.328&#10;&#9;&#9;&#9;c7.963,0,14.441,6.478,14.441,14.441v62.833c0,7.963-6.478,14.441-14.441,14.441H211.946z"/>
		
			<circle style="fill:none;stroke:#000000;stroke-width:15;stroke-linecap:round;stroke-linejoin:round;stroke-miterlimit:10;" cx="285.438" cy="61.432" r="13.842"/>
		
			<line style="fill:none;stroke:#000000;stroke-width:15;stroke-linecap:round;stroke-linejoin:round;stroke-miterlimit:10;" x1="285.438" y1="75.274" x2="285.438" y2="100.393"/>
		
			<line style="fill:none;stroke:#000000;stroke-width:15;stroke-linecap:round;stroke-linejoin:round;stroke-miterlimit:10;" x1="230.099" y1="165.985" x2="230.099" y2="169.766"/>
		
			<line style="fill:none;stroke:#000000;stroke-width:15;stroke-linecap:round;stroke-linejoin:round;stroke-miterlimit:10;" x1="283.122" y1="165.985" x2="283.122" y2="169.766"/>
		<path style="fill:none;stroke:#000000;stroke-width:15;stroke-linecap:round;stroke-linejoin:round;stroke-miterlimit:10;" d="&#10;&#9;&#9;&#9;M483.818,292.64H362.53c-1.812,0-2.841-2.074-1.745-3.517l9.702-12.767v-25.564c0-10.992,8.911-19.903,19.903-19.903h93.429&#10;&#9;&#9;&#9;c10.992,0,19.903,8.911,19.903,19.903v21.946C503.721,283.729,494.81,292.64,483.818,292.64z"/>
		<path style="fill:none;stroke:#000000;stroke-width:15;stroke-linecap:round;stroke-linejoin:round;stroke-miterlimit:10;" d="&#10;&#9;&#9;&#9;M27.403,239.342h108.288c1.812,0,2.841-2.074,1.745-3.517l-9.702-12.767v-25.564c0-10.992-8.911-19.903-19.903-19.903H27.403&#10;&#9;&#9;&#9;c-10.992,0-19.903,8.911-19.903,19.903v21.946C7.5,230.431,16.411,239.342,27.403,239.342z"/>
		<path style="fill:none;stroke:#000000;stroke-width:15;stroke-linecap:round;stroke-linejoin:round;stroke-miterlimit:10;" d="&#10;&#9;&#9;&#9;M203.753,359.093h-91.442c-17.259,0-31.25-13.991-31.25-31.25v0c0-17.259,13.991-31.25,31.25-31.25h124.645&#10;&#9;&#9;&#9;c2.422,0,3.863,2.704,2.511,4.714l-9.368,13.936v17.503C230.099,347.298,218.303,359.093,203.753,359.093z"/>
		<path style="fill:none;stroke:#000000;stroke-width:15;stroke-linecap:round;stroke-linejoin:round;stroke-miterlimit:10;" d="&#10;&#9;&#9;&#9;M395.769,345.217h-44.137L339.44,332.41c-2.671-2.806-7.146-2.806-9.817,0l-12.192,12.806h-14.835&#10;&#9;&#9;&#9;c-13.458,0-24.369,10.91-24.369,24.369v0c0,13.458,10.91,24.368,24.369,24.368h93.173c13.458,0,24.368-10.91,24.368-24.368v0&#10;&#9;&#9;&#9;C420.138,356.127,409.228,345.217,395.769,345.217z"/>
	</g>
	<g>
		<path style="fill:none;stroke:#000000;stroke-width:15;stroke-linecap:round;stroke-linejoin:round;stroke-miterlimit:10;" d="&#10;&#9;&#9;&#9;M475.72,230.889v-71.808c0-13.849-11.227-25.077-25.077-25.077h-30.506"/>
		
			<line style="fill:none;stroke:#000000;stroke-width:15;stroke-linecap:round;stroke-linejoin:round;stroke-miterlimit:10;" x1="388.175" y1="134.004" x2="343.014" y2="134.004"/>
	</g>
	<path style="fill:none;stroke:#000000;stroke-width:15;stroke-linecap:round;stroke-linejoin:round;stroke-miterlimit:10;" d="&#10;&#9;&#9;M220.27,101.734h-8.323c-24.544,0-44.441,19.897-44.441,44.441v62.833c0,24.544,19.897,44.441,44.441,44.441h88.328&#10;&#9;&#9;c24.544,0,44.441-19.897,44.441-44.441v-62.833c0-24.544-19.897-44.441-44.441-44.441h-48.042"/>
	<path style="fill:none;stroke:#000000;stroke-width:15;stroke-linecap:round;stroke-linejoin:round;stroke-miterlimit:10;" d="&#10;&#9;&#9;M70.891,421.788H10.106c-0.887,0-1.606,0.719-1.606,1.606v13.448c0,14.795,11.994,26.788,26.788,26.788h441.644&#10;&#9;&#9;c14.795,0,26.788-11.993,26.788-26.788v-13.448c0-0.887-0.719-1.606-1.606-1.606H102.854"/>
</g>















</svg>
