<svg id="Layer_1" enable-background="new 0 0 66 66" height="512" viewBox="0 0 66 66" width="512" xmlns="http://www.w3.org/2000/svg"><g><path d="m40.71 62.75h-1.23v-20.56c0-.41-.34-.75-.75-.75h-5.63c-.41 0-.75.34-.75.75v20.56h-2.48v-16.59c0-.41-.34-.75-.75-.75h-5.63c-.41 0-.75.34-.75.75v16.59h-2.47v-26.53c0-.41-.34-.75-.75-.75h-5.63c-.41 0-.75.34-.75.75v26.53h-2.48v-12.61c0-.41-.34-.75-.75-.75h-5.62c-.41 0-.75.34-.75.75v12.61h-1.24c-.41 0-.75.34-.75.75s.34.75.75.75h38.42c.41 0 .75-.34.75-.75s-.34-.75-.76-.75zm-6.86-19.81h4.13v19.81h-4.13zm-9.61 3.97h4.13v15.84h-4.13zm-9.6-9.94h4.13v25.78h-4.13zm-9.6 13.92h4.12v11.86h-4.12z"/><path d="m47.9 11.41c-6.94 0-12.58 5.65-12.58 12.58 0 3.36 1.31 6.52 3.69 8.9s5.54 3.69 8.9 3.69 6.52-1.31 8.9-3.69 3.69-5.54 3.69-8.9c-.02-6.93-5.67-12.58-12.6-12.58zm-11.09 12.58c0-5.86 4.57-10.66 10.33-11.05v10.73l-7.6 7.6c-1.76-2.01-2.73-4.57-2.73-7.28zm11.09 11.09c-2.71 0-5.26-.97-7.28-2.74l7.28-7.28 7.28 7.28c-2.02 1.76-4.58 2.74-7.28 2.74zm8.35-3.8-7.6-7.6v-10.74c5.76.39 10.33 5.2 10.33 11.06 0 2.7-.97 5.26-2.73 7.28z"/><path d="m47.9 7.44c-9.13 0-16.56 7.43-16.56 16.56 0 6.94 4.3 12.89 10.38 15.35v2.75c0 .96.78 1.74 1.74 1.74h.65v16.1c0 2.09 1.7 3.79 3.79 3.79s3.79-1.7 3.79-3.79v-16.1h.65c.96 0 1.74-.78 1.74-1.74v-2.75c6.07-2.46 10.38-8.4 10.38-15.35-.01-9.13-7.44-16.56-16.56-16.56zm2.29 52.5c0 1.26-1.03 2.29-2.29 2.29s-2.29-1.03-2.29-2.29v-16.1h4.58zm2.39-17.85c0 .13-.11.24-.24.24h-8.88c-.13 0-.24-.11-.24-.24v-2.22c1.49.44 3.06.68 4.68.68 1.63 0 3.19-.25 4.68-.68zm-4.68-3.04c-8.3 0-15.06-6.75-15.06-15.06s6.75-15.05 15.06-15.05c8.3 0 15.06 6.75 15.06 15.06s-6.76 15.05-15.06 15.05z"/><path d="m6.58 24.01c1.03 0 2.06-.39 2.85-1.18 1.39-1.39 1.55-3.55.48-5.12l5.46-5.46c.66.45 1.45.7 2.27.7.77 0 1.49-.22 2.13-.62l1.61 1.61c-.4.63-.62 1.36-.62 2.13 0 1.08.42 2.09 1.18 2.85s1.77 1.18 2.85 1.18 2.09-.42 2.85-1.18c1.39-1.39 1.55-3.55.48-5.12l4.7-4.7c.68.46 1.47.7 2.27.7 1.03 0 2.06-.39 2.85-1.18 1.57-1.57 1.57-4.13 0-5.7s-4.13-1.57-5.7 0c-1.39 1.39-1.55 3.55-.48 5.12l-4.7 4.7c-1.41-.96-3.28-.92-4.66.1l-1.53-1.53c1.17-1.58 1.05-3.81-.38-5.24-1.57-1.57-4.13-1.57-5.7 0-1.39 1.39-1.55 3.55-.48 5.12l-5.46 5.46c-1.57-1.07-3.72-.91-5.12.48-.76.76-1.18 1.77-1.18 2.85s.42 2.09 1.18 2.85c.79.79 1.82 1.18 2.85 1.18zm26.71-20.02c.49-.49 1.14-.74 1.79-.74s1.3.25 1.79.74c.99.99.99 2.59 0 3.58s-2.59.99-3.58 0c-.98-.99-.98-2.59 0-3.58zm-10.29 10.29c.49-.49 1.14-.74 1.79-.74s1.3.25 1.79.74c.99.99.99 2.59 0 3.58-.96.96-2.62.96-3.58 0-.48-.48-.74-1.11-.74-1.79 0-.67.26-1.31.74-1.79zm-7.15-7.15c.49-.49 1.14-.74 1.79-.74s1.3.25 1.79.74c.99.99.99 2.59 0 3.58-.96.96-2.62.96-3.58 0-.99-.98-.99-2.59 0-3.58zm-11.06 11.06c.49-.49 1.14-.74 1.79-.74s1.3.25 1.79.74c.99.99.99 2.59 0 3.58s-2.59.99-3.58 0c-.48-.48-.74-1.11-.74-1.79s.26-1.31.74-1.79z"/></g></svg>